<svg id="Layer_1" enable-background="new 0 0 512 512" height="512" viewBox="0 0 512 512" width="512" xmlns="http://www.w3.org/2000/svg"><g><path d="m322.714 374.096-5.128-4.814h-74.43l-5.065 5.629c-8.539 31.115-37.008 53.984-70.835 53.984-33.825 0-62.293-22.867-70.833-53.98l-6.248-5.633h-72.37l-6.006 4.814c9.228 77.671 75.304 137.904 155.457 137.904s146.229-60.233 155.458-137.904z" fill="#eaae8e"/><path d="m64.358 369.282h-46.554l-6.006 4.814c9.229 77.671 75.305 137.904 155.458 137.904 9.046 0 17.91-.774 26.537-2.247-69.387-11.839-123.196-69.328-129.435-140.471z" fill="#e39b74"/><path d="m317.346 310.748-5.683-8.169-70.567-40.177-40.434-59.235-6.007-1.914c-8.897-1.57-18.051-2.393-27.398-2.393-86.471 0-156.57 70.099-156.57 156.57 0 6.317.385 12.544 1.112 18.666 18.453.542 18.84 14.397 38.028 14.397 19.568 0 19.568-14.422 39.136-14.422 2.869 0 5.309.316 7.46.845-1.704-6.208-2.633-12.737-2.633-19.486 0-40.574 32.892-73.466 73.466-73.466s73.466 32.892 73.466 73.466c0 6.747-.928 13.275-2.631 19.481 2.146-.526 4.58-.841 7.44-.841 19.574 0 19.574 14.422 39.148 14.422 19.191 0 19.579-13.855 38.035-14.397.727-6.122 1.112-12.349 1.112-18.666 0-15.526-2.271-30.521-6.48-44.681z" fill="#9d5e5e"/><path d="m63.741 355.43c0-77.428 56.207-141.719 130.042-154.321-8.624-1.472-17.484-2.249-26.527-2.249-86.471 0-156.57 70.099-156.57 156.57 0 6.317.385 12.544 1.112 18.666 18.453.542 18.84 14.397 38.028 14.397 7.726 0 12.399-2.25 16.433-4.971-1.651-9.115-2.518-18.502-2.518-28.092z" fill="#865151"/><g><path d="m53.055 342.958c-1.825 0-3.658-.643-5.13-1.952l-6.181-5.494c-3.189-2.835-3.476-7.719-.641-10.908 2.834-3.189 7.718-3.476 10.908-.641l6.181 5.494c3.189 2.835 3.476 7.719.641 10.908-1.527 1.718-3.648 2.593-5.778 2.593z" fill="#bc7f7f"/></g><g><path d="m69.2 298.655c-2.131 0-4.251-.876-5.778-2.594-2.834-3.189-2.547-8.073.642-10.908l6.181-5.494c3.189-2.835 8.072-2.547 10.908.642 2.835 3.189 2.547 8.073-.642 10.908l-6.181 5.494c-1.471 1.309-3.305 1.952-5.13 1.952z" fill="#bc7f7f"/></g><g><path d="m116.582 270.23c-1.825 0-3.658-.643-5.13-1.952l-6.181-5.494c-3.189-2.835-3.476-7.719-.641-10.908s7.717-3.476 10.908-.641l6.181 5.494c3.189 2.835 3.476 7.719.641 10.908-1.527 1.718-3.647 2.593-5.778 2.593z" fill="#bc7f7f"/></g><g><path d="m164.169 256.916c-2.131 0-4.251-.876-5.778-2.593-2.835-3.189-2.548-8.073.641-10.908l6.181-5.494c3.19-2.836 8.073-2.548 10.908.641s2.548 8.073-.641 10.908l-6.181 5.494c-1.472 1.309-3.305 1.952-5.13 1.952z" fill="#bc7f7f"/></g><g><path d="m273.343 345.855c-2.131 0-4.251-.876-5.778-2.593-2.835-3.189-2.548-8.073.641-10.908l6.181-5.494c3.19-2.836 8.073-2.548 10.908.641s2.548 8.073-.641 10.908l-6.181 5.494c-1.471 1.309-3.304 1.952-5.13 1.952z" fill="#bc7f7f"/></g><path d="m500.202 175.237-2.763-6.067h-72.284l-9.576 6.882c-8.539 31.115-37.008 53.984-70.835 53.984-33.825 0-62.293-22.867-70.833-53.98l-8.091-6.886h-67.992l-8.542 6.067c9.229 77.67 75.304 137.904 155.458 137.904s146.229-60.234 155.458-137.904z" fill="#eaae8e"/><path d="m241.735 169.17h-43.907l-8.542 6.067c9.229 77.67 75.304 137.904 155.458 137.904 9.046 0 17.911-.774 26.537-2.247-69.795-11.909-123.834-70.004-129.546-141.724z" fill="#e39b74"/><path d="m344.744 0c-86.471 0-156.57 70.099-156.57 156.57 0 6.317.385 12.544 1.112 18.666 18.453.542 18.84 14.397 38.028 14.397 19.568 0 19.568-14.422 39.136-14.422 2.869 0 5.309.316 7.46.845-1.704-6.208-2.633-12.737-2.633-19.486 0-40.574 32.892-73.466 73.466-73.466s73.466 32.892 73.466 73.466c0 6.747-.928 13.275-2.631 19.481 2.147-.526 4.58-.841 7.44-.841 19.574 0 19.574 14.422 39.148 14.422 19.191 0 19.579-13.855 38.035-14.397.727-6.122 1.112-12.349 1.112-18.666.001-86.47-70.098-156.569-156.569-156.569z" fill="#f78b98"/><path d="m241.229 156.57c0-77.428 56.207-141.719 130.042-154.321-8.623-1.472-17.484-2.249-26.527-2.249-86.471 0-156.57 70.099-156.57 156.57 0 6.317.385 12.544 1.112 18.666 18.453.542 18.84 14.397 38.028 14.397 7.726 0 12.399-2.25 16.432-4.972-1.65-9.113-2.517-18.501-2.517-28.091z" fill="#f27182"/><g><path d="m230.542 141.136c-1.825 0-3.658-.643-5.13-1.952l-6.181-5.494c-3.189-2.835-3.476-7.719-.641-10.908s7.717-3.476 10.908-.641l6.181 5.494c3.189 2.835 3.476 7.719.641 10.908-1.527 1.717-3.647 2.593-5.778 2.593z" fill="#9d5e5e"/></g><g><path d="m246.688 96.832c-2.131 0-4.251-.876-5.778-2.594-2.834-3.189-2.547-8.073.642-10.908l6.181-5.494c3.189-2.836 8.072-2.547 10.908.642 2.834 3.189 2.547 8.073-.642 10.908l-6.181 5.494c-1.472 1.309-3.305 1.952-5.13 1.952z" fill="#9d5e5e"/></g><g><path d="m294.07 68.408c-1.825 0-3.658-.643-5.13-1.952l-6.181-5.494c-3.189-2.835-3.476-7.719-.641-10.908s7.717-3.477 10.908-.641l6.181 5.494c3.189 2.835 3.476 7.719.641 10.908-1.527 1.717-3.648 2.593-5.778 2.593z" fill="#9d5e5e"/></g><g><path d="m341.656 55.093c-2.131 0-4.251-.876-5.778-2.593-2.835-3.189-2.548-8.073.641-10.908l6.181-5.494c3.19-2.836 8.073-2.547 10.908.641 2.835 3.189 2.548 8.073-.641 10.908l-6.181 5.494c-1.471 1.309-3.304 1.952-5.13 1.952z" fill="#9d5e5e"/></g><g><path d="m465.12 141.136c-1.825 0-3.658-.643-5.13-1.952l-6.181-5.494c-3.189-2.835-3.476-7.719-.641-10.908s7.717-3.476 10.908-.641l6.181 5.494c3.189 2.835 3.476 7.719.641 10.908-1.527 1.717-3.648 2.593-5.778 2.593z" fill="#9d5e5e"/></g><g><path d="m436.625 96.832c-2.131 0-4.251-.876-5.778-2.594-2.834-3.189-2.547-8.073.642-10.908l6.181-5.494c3.189-2.836 8.072-2.547 10.908.642 2.835 3.189 2.547 8.073-.642 10.908l-6.181 5.494c-1.472 1.309-3.305 1.952-5.13 1.952z" fill="#9d5e5e"/></g><g><path d="m401.593 68.408c-1.825 0-3.658-.643-5.13-1.952l-6.181-5.494c-3.189-2.835-3.476-7.719-.641-10.908s7.717-3.477 10.908-.641l6.181 5.494c3.189 2.835 3.476 7.719.641 10.908-1.527 1.717-3.648 2.593-5.778 2.593z" fill="#9d5e5e"/></g></g></svg>