<svg id="Capa_1" enable-background="new 0 0 512 512" height="512" viewBox="0 0 512 512" width="512" xmlns="http://www.w3.org/2000/svg"><g><path d="m267.066 120.211 27.675-17.742c10.166-6.517 23.734-2.882 29.28 7.845l15.096 29.203c3.679 7.116 11.165 11.438 19.167 11.066l32.838-1.528c12.063-.561 21.995 9.372 21.434 21.434l-1.528 32.838c-.372 8.002 3.95 15.488 11.066 19.167l29.203 15.096c10.727 5.545 14.363 19.114 7.845 29.28l-17.742 27.675c-4.323 6.744-4.323 15.388 0 22.132l17.742 27.675c6.517 10.166 2.882 23.734-7.845 29.28l-29.203 15.096c-7.116 3.679-11.438 11.165-11.066 19.167l1.528 32.838c.561 12.063-9.372 21.995-21.434 21.434l-32.838-1.528c-8.002-.372-15.488 3.95-19.167 11.066l-15.096 29.203c-5.545 10.727-19.114 14.363-29.28 7.845l-27.675-17.742c-6.744-4.323-15.388-4.323-22.132 0l-27.675 17.742c-10.166 6.517-23.734 2.882-29.28-7.845l-15.096-29.203c-3.679-7.116-11.165-11.438-19.167-11.066l-32.838 1.528c-12.063.561-21.995-9.372-21.434-21.434l1.528-32.838c.372-8.002-3.95-15.488-11.066-19.167l-29.203-15.096c-10.727-5.545-14.363-19.114-7.845-29.28l17.742-27.675c4.323-6.744 4.323-15.388 0-22.132l-17.742-27.675c-6.517-10.166-2.882-23.734 7.845-29.28l29.203-15.096c7.116-3.679 11.438-11.165 11.066-19.167l-1.528-32.838c-.561-12.063 9.372-21.995 21.434-21.434l32.838 1.528c8.002.372 15.488-3.95 19.167-11.066l15.096-29.203c5.545-10.727 19.114-14.363 29.28-7.845l27.675 17.742c6.744 4.323 15.388 4.323 22.132 0z" fill="#dd636e"/><path d="m441.4 316.677c-4.323-6.744-4.323-15.388 0-22.132l17.742-27.675c6.517-10.166 2.882-23.734-7.845-29.28l-29.203-15.096c-7.116-3.679-11.438-11.165-11.066-19.167l1.528-32.838c.522-11.232-8.054-20.612-18.976-21.399 4.824 18.117 7.41 37.148 7.41 56.785 0 121.569-98.551 220.121-220.121 220.121-28.239 0-55.233-5.324-80.041-15.013l-1.384 29.749c-.561 12.063 9.372 21.995 21.434 21.434l32.838-1.528c8.002-.372 15.488 3.95 19.167 11.066l15.096 29.203c5.545 10.727 19.114 14.363 29.28 7.845l27.675-17.742c6.744-4.323 15.388-4.323 22.132 0l27.675 17.742c10.166 6.517 23.734 2.882 29.28-7.845l15.096-29.203c3.679-7.116 11.165-11.438 19.167-11.066l32.838 1.528c12.063.561 21.995-9.372 21.434-21.434l-1.528-32.838c-.372-8.002 3.95-15.488 11.066-19.167l29.203-15.096c10.727-5.545 14.363-19.114 7.845-29.28z" fill="#da4a54"/><circle cx="256" cy="305.611" fill="#ffe07d" r="143.525"/><path d="m180.869 425.996c-1.032 0-2.058-.022-3.086-.036 22.501 14.654 49.362 23.176 78.217 23.176 79.267 0 143.525-64.258 143.525-143.525 0-14.583-2.182-28.655-6.225-41.916-25.394 93.518-110.873 162.301-212.431 162.301z" fill="#ffd064"/><g><g><path d="m228.704 378.988c-.982 0-1.98-.191-2.942-.595-3.876-1.626-5.7-6.088-4.073-9.964l56.409-134.413c1.627-3.875 6.087-5.7 9.964-4.073 3.876 1.626 5.7 6.088 4.073 9.964l-56.41 134.413c-1.223 2.913-4.047 4.668-7.021 4.668z" fill="#ecf4ff"/></g><g><path d="m217.908 296.236c-17.941 0-32.537-16.408-32.537-36.576 0-20.167 14.596-36.575 32.537-36.575s32.537 16.408 32.537 36.575c0 20.169-14.597 36.576-32.537 36.576zm0-57.928c-9.547 0-17.314 9.579-17.314 21.352 0 11.774 7.767 21.353 17.314 21.353s17.314-9.579 17.314-21.353c0-11.773-7.768-21.352-17.314-21.352z" fill="#ecf4ff"/></g><g><path d="m294.092 388.136c-17.941 0-32.536-16.408-32.536-36.575s14.596-36.575 32.536-36.575c17.941 0 32.537 16.408 32.537 36.575s-14.596 36.575-32.537 36.575zm0-57.927c-9.547 0-17.313 9.579-17.313 21.352 0 11.774 7.767 21.352 17.313 21.352 9.547 0 17.314-9.579 17.314-21.352 0-11.774-7.767-21.352-17.314-21.352z" fill="#ecf4ff"/></g></g><g><path d="m294.362 38.362c0 13.417-1.877 38.413-7.459 69.133-4.8 26.427-12.331 57.107-23.758 88.293-1.126 3.085-4.039 4.993-7.145 4.993-.873 0-1.756-.152-2.618-.467-3.948-1.441-5.978-5.815-4.526-9.763 9.408-25.686 15.893-50.185 20.358-71.721 9.763-47.039 9.925-79.992 9.925-80.469 0-12.757-10.382-23.139-23.139-23.139s-23.139 10.382-23.139 23.139c0 11.996 0 43.629 11.59 81.534l-19.09-12.239c-7.723-32.455-7.723-58.477-7.723-69.295 0-21.149 17.202-38.361 38.362-38.361s38.362 17.212 38.362 38.362z" fill="#3342aa"/></g></g></svg>