<svg id="Capa_1" data-name="Capa 1" xmlns="http://www.w3.org/2000/svg" xmlns:xlink="http://www.w3.org/1999/xlink" viewBox="0 0 347.45 512.01"><defs><linearGradient id="linear-gradient" x1="162.2" y1="718.06" x2="412.2" y2="822.06" gradientTransform="translate(0 -510)" gradientUnits="userSpaceOnUse"><stop offset="0" stop-color="#c6d1ff"/><stop offset="0.58" stop-color="#e6d5f4"/><stop offset="1" stop-color="#ffd9ec"/></linearGradient></defs><path d="M330.1.4C234.3,9.1,225,192.9,183.7,287c-20.5,46.7-68.8,94.8-60.3,149.8,9.6,62,72.9,80.1,121.7,74.1,120.7-14.7,172.9-141,180.8-260.8C430.8,176.3,446.2-10.1,330.1.4Z" transform="translate(-82.23 0.03)" style="fill:url(#linear-gradient)"/><path d="M394.9,190.4a57.48,57.48,0,0,0-41.1-55.1V104.8a20.06,20.06,0,0,0-20-20h-182a20.06,20.06,0,0,0-20,20V457.2a20.06,20.06,0,0,0,20,20h182a20.06,20.06,0,0,0,20-20V245.6a57.69,57.69,0,0,0,41.1-55.2Z" transform="translate(-82.23 0.03)" style="fill:#2626bc;opacity:0.10000000149011612;isolation:isolate"/><path d="M353.7,79.8V432.2a20.06,20.06,0,0,1-20,20h-182a20.06,20.06,0,0,1-20-20V79.8a20.06,20.06,0,0,1,20-20h182A20,20,0,0,1,353.7,79.8Z" transform="translate(-82.23 0.03)" style="fill:#ffa8cf"/><path d="M353.7,132.3V242.6a59.11,59.11,0,0,1-16.4,2.4,57.5,57.5,0,1,1,0-115,54.65,54.65,0,0,1,16.4,2.3Z" transform="translate(-82.23 0.03)" style="fill:#ff7eb8"/><path d="M131.8,258.6V432.2a20.06,20.06,0,0,0,20,20h182a20.06,20.06,0,0,0,20-20V258.6Z" transform="translate(-82.23 0.03)" style="fill:#ff7eb8"/><path d="M131.8,258.6h222v15.7h-222V258.6Z" transform="translate(-82.23 0.03)" style="fill:#ff5ba8"/><path d="M288.2,88.8h-91a10,10,0,0,1-9.5-6.7L180,59.8H305.2l-7.7,22.3A9.61,9.61,0,0,1,288.2,88.8Z" transform="translate(-82.23 0.03)" style="fill:#ffdbed"/><path d="M197.3,423.2h91a10,10,0,0,1,9.5,6.7l7.7,22.3H180.1l7.7-22.3A10,10,0,0,1,197.3,423.2Z" transform="translate(-82.23 0.03)" style="fill:#ffdbed"/><path d="M396.2,85.2a4.69,4.69,0,0,1-3.5-1.5l-6-6-6,6a5,5,0,1,1-7.1-7.1l9.5-9.5a5,5,0,0,1,7.1,0l9.5,9.5a5,5,0,0,1,0,7.1A4.69,4.69,0,0,1,396.2,85.2Z" transform="translate(-82.23 0.03)" style="fill:#6583fe"/><path d="M110.8,180.9a4.69,4.69,0,0,1-3.5-1.5l-6-6-6,6a5,5,0,1,1-7.1-7.1l9.5-9.5a5,5,0,0,1,7.1,0l9.5,9.5a5,5,0,0,1,0,7.1A5,5,0,0,1,110.8,180.9Z" transform="translate(-82.23 0.03)" style="fill:#6583fe"/><path d="M96.8,411.7a14.78,14.78,0,0,1-10.3-4.2,14.61,14.61,0,1,1,10.3,4.2Zm0-19a4.38,4.38,0,0,0-3.2,1.3,4.53,4.53,0,1,0,6.4,0A4.54,4.54,0,0,0,96.8,392.7Z" transform="translate(-82.23 0.03)" style="fill:#00eca2"/><path d="M226.6,390.7H167a5,5,0,0,1-5-5V368.4a5,5,0,0,1,5-5h59.6a5,5,0,0,1,5,5v17.3A5,5,0,0,1,226.6,390.7Z" transform="translate(-82.23 0.03)" style="fill:#fe2c8f"/><path d="M318.4,390.7H258.8a5,5,0,0,1-5-5V368.4a5,5,0,0,1,5-5h59.6a5,5,0,0,1,5,5v17.3a5,5,0,0,1-5,5Z" transform="translate(-82.23 0.03)" style="fill:#01eca5"/><path d="M318.1,292.6H276.7a5,5,0,1,1,0-10h41.4a5,5,0,0,1,5,5A5,5,0,0,1,318.1,292.6Z" transform="translate(-82.23 0.03)" style="fill:#01eca5"/><path d="M317.9,320.9H167.4a5,5,0,1,1,0-10H317.9a5,5,0,0,1,0,10Z" transform="translate(-82.23 0.03)" style="fill:#fff"/><path d="M318.1,339.4H167.6a5,5,0,0,1,0-10H318.1a5,5,0,0,1,5,5A5,5,0,0,1,318.1,339.4Z" transform="translate(-82.23 0.03)" style="fill:#fff"/><path d="M207.4,126.6a5,5,0,0,0-5,5V151a10.41,10.41,0,0,1-5.5,9.2V131.6a5,5,0,0,0-10,0v28.6a10.41,10.41,0,0,1-5.5-9.2V131.6a5,5,0,0,0-10,0V151a20.38,20.38,0,0,0,15.5,19.8v56.6a5,5,0,0,0,10,0V170.8A20.47,20.47,0,0,0,212.4,151V131.6A5.08,5.08,0,0,0,207.4,126.6Z" transform="translate(-82.23 0.03)" style="fill:#fff"/><path d="M225.8,126.7a5.48,5.48,0,0,0-4.1,1.1,4.78,4.78,0,0,0-1.8,3.8v95.8a5,5,0,0,0,10,0V200.7h18.7a5,5,0,0,0,5-5v-36A33.48,33.48,0,0,0,225.8,126.7Zm17.8,64.1H229.9V138.4a23.54,23.54,0,0,1,13.7,21.4Z" transform="translate(-82.23 0.03)" style="fill:#fff"/><circle cx="255.17" cy="165.43" r="57.5" style="fill:#01eca5"/><path d="M361.6,154.2A24.25,24.25,0,1,0,317.4,168a97.28,97.28,0,0,1,8.2,14.4l10,22.1a1.92,1.92,0,0,0,3.5,0l10.1-22.2a96.26,96.26,0,0,1,8.2-14.3,24.43,24.43,0,0,0,4.2-13.8Z" transform="translate(-82.23 0.03)" style="fill:#ff7eb8"/><circle cx="255.07" cy="154.43" r="14" style="fill:#fff"/><path d="M415.2,124.9a14.78,14.78,0,0,1-10.3-4.2,14.5,14.5,0,1,1,20.5,0,14,14,0,0,1-10.2,4.2Zm0-19a4.38,4.38,0,0,0-3.2,1.3,4.53,4.53,0,1,0,6.4,0A4.82,4.82,0,0,0,415.2,105.9Z" transform="translate(-82.23 0.03)" style="fill:#ff7eb8"/><path d="M396.2,401.6a4.69,4.69,0,0,1-3.5-1.5l-6-6-6,6a5,5,0,1,1-7.1-7.1l9.5-9.5a5,5,0,0,1,7.1,0l9.5,9.5a5,5,0,0,1,0,7.1A4.69,4.69,0,0,1,396.2,401.6Z" transform="translate(-82.23 0.03)" style="fill:#6583fe"/></svg>