<svg id="Capa_1" enable-background="new 0 0 512 512" height="512" viewBox="0 0 512 512" width="512" xmlns="http://www.w3.org/2000/svg"><g><path d="m511.996 255.997c0 26.533-23.782 48.986-31.556 72.928-8.057 24.814-2.292 56.903-17.323 77.557-15.182 20.861-47.583 25.223-68.444 40.405-20.654 15.031-34.734 44.585-59.548 52.642-23.942 7.774-52.593-7.606-79.127-7.606-26.533 0-55.185 15.379-79.126 7.606-24.814-8.057-38.894-37.611-59.548-52.642-20.861-15.182-53.262-19.544-68.444-40.405-15.031-20.654-9.266-52.743-17.323-77.557-7.775-23.941-31.557-46.394-31.557-72.928 0-26.533 23.782-48.986 31.556-72.928 8.057-24.814 2.292-56.903 17.323-77.557 15.182-20.861 47.583-25.223 68.444-40.405 20.654-15.031 34.734-44.585 59.548-52.642 23.942-7.774 52.593 7.606 79.127 7.606 26.533 0 55.184-15.379 79.126-7.606 24.814 8.057 38.894 37.611 59.548 52.642 20.861 15.182 53.262 19.544 68.444 40.405 15.031 20.654 9.266 52.743 17.323 77.557 7.774 23.942 31.557 46.395 31.557 72.928z" fill="#e2f6eb"/><path d="m512 255.997c0 26.531-23.789 48.99-31.563 72.933-8.053 24.809-2.289 56.898-17.323 77.552-15.178 20.86-47.577 25.222-68.437 40.4-20.654 15.034-34.739 44.587-59.549 52.65-13.302 4.321-28.047 1.495-43.081-1.877 8.332.949 16.405.784 24.005-1.681 25.108-8.156 41.838-45.248 62.739-60.457 21.108-15.364 50.956-23.338 66.32-44.456 15.209-20.901 9.836-42.622 17.992-67.731 7.868-24.232 27.922-41.522 27.922-68.373s-26.339-54.669-34.207-78.89c-8.156-25.108 3.965-57.924-11.244-78.825-4.97-6.837-11.776-11.91-19.406-16.179 14.353 6.166 28.387 12.683 36.946 24.449 15.034 20.654 9.27 52.743 17.323 77.552 7.774 23.944 31.563 46.402 31.563 72.933z" fill="#ceefdd"/><circle cx="255.998" cy="255.997" fill="#6ed5a1" r="200.82"/><path d="m456.813 255.997c0 110.91-89.905 200.815-200.815 200.815-21.273 0-41.772-3.31-61.013-9.435 13.415 2.825 27.325 4.31 41.576 4.31 110.91 0 200.826-89.916 200.826-200.826 0-89.606-58.682-165.499-139.72-191.339 90.915 19.17 159.146 99.857 159.146 196.475z" fill="#46cc8d"/><g fill="#30b271"><path d="m351.778 270.355c10.985 0 22.415-1.698 33.756-5.149l.337-.105c7.377-2.322 12.834-8.591 14.239-16.359 1.414-7.811-1.519-15.64-7.653-20.431-4.242-3.313-13.067-8.314-23.219-12.016-12.46-4.545-22.762-5.738-30.62-3.553-6.661 1.854-11.437 6.118-13.811 12.333-1.479 3.869.46 8.205 4.329 9.683 3.87 1.479 8.204-.46 9.683-4.329.482-1.262 1.279-2.528 3.82-3.235 10.835-3.016 33.794 7.637 40.585 12.94 2.602 2.033 2.285 5.059 2.126 5.938-.156.863-.905 3.754-3.997 4.727l-.216.067c-25.442 7.744-52.087 5.186-69.532-6.678-13.386-9.103-20.909-22.784-22.36-40.664-.94-11.584-.349-23.071.278-35.232.246-4.76.5-9.681.648-14.562.127-4.14-3.127-7.599-7.267-7.726-4.182-.13-7.6 3.128-7.726 7.268-.145 4.723-.395 9.564-.636 14.247-.393 7.626-.785 23.305-.785 23.319-.618 47.631-23.926 58.889-37.761 61.36-11.924 2.122-21.696 1.433-29.043-2.047-3.743-1.772-8.216-.176-9.989 3.567-1.772 3.744-.176 8.216 3.567 9.989 6.59 3.122 14.256 4.686 22.908 4.686 4.77 0 9.838-.476 15.189-1.428 19.884-3.551 34.499-16.025 42.665-35.581 4.926 10.166 12.28 18.683 21.875 25.208 13.372 9.089 30.381 13.763 48.61 13.763z"/><path d="m151.539 262.484c21.422.032 40.99-17.109 40.99-40.031 0-.003 0-73.874 0-73.874 0-4.142-3.357-7.5-7.5-7.5s-7.5 3.358-7.5 7.5v73.874c0 32.736-50.994 32.417-50.994 0 0-3.986.857-13.656 8.802-17.346 3.757-1.745 5.388-6.205 3.643-9.961-1.743-3.757-6.202-5.386-9.961-3.643-11.111 5.161-17.483 16.441-17.483 30.95 0 10.881 4.547 21.444 12.422 28.951 7.91 7.54 16.652 11.064 27.581 11.08z"/><path d="m214.526 174.713c.868.336 21.247 8.499 20.451 31.479-.144 4.14 3.096 7.612 7.235 7.755.089.003.177.004.265.004 4.021 0 7.351-3.189 7.49-7.24.94-27.136-19.308-41.976-30.145-46.032-3.863-1.445-8.149.508-9.617 4.363-1.467 3.856.475 8.181 4.321 9.671z"/><path d="m213.909 289.595c-.025-.068-.052-.136-.08-.204-1.358-3.306-4.545-5.44-8.118-5.44-.002 0-.004 0-.006 0-3.576.002-6.763 2.142-8.118 5.451-.024.058-.047.116-.069.174l-21.184 55.621c-1.475 3.871.469 8.204 4.34 9.678.878.335 1.78.493 2.668.493 3.021 0 5.87-1.84 7.01-4.833l3.436-9.022h23.683l3.397 9c1.463 3.875 5.79 5.833 9.665 4.369 3.875-1.462 5.831-5.79 4.368-9.665zm-14.408 36.919 6.183-16.234 6.126 16.234z"/><path d="m333.424 289.595c-.025-.068-.052-.136-.08-.204-1.358-3.306-4.545-5.44-8.118-5.44-.003 0-.006 0-.009 0-3.577.003-6.764 2.145-8.117 5.456-.022.056-.045.112-.066.169l-21.185 55.621c-1.475 3.871.469 8.204 4.339 9.678.879.334 1.781.493 2.669.493 3.021 0 5.87-1.84 7.01-4.833l3.436-9.022h23.683l3.397 9c1.462 3.876 5.79 5.833 9.665 4.369 3.875-1.463 5.831-5.79 4.368-9.665zm-14.408 36.919 6.183-16.233 6.126 16.233z"/><path d="m274.961 340.319c-3.728.021-8.396.04-12.213.045v-48.914c0-4.142-3.357-7.5-7.5-7.5s-7.5 3.358-7.5 7.5v56.368c0 3.653 2.632 6.774 6.231 7.392.536.092.928.159 7.223.159 3.026 0 7.417-.016 13.843-.051 4.142-.023 7.481-3.4 7.458-7.542-.024-4.142-3.387-7.5-7.542-7.457z"/><path d="m395.146 340.319c-.015 0-.028 0-.043 0-3.728.021-8.396.04-12.213.045v-48.914c0-4.142-3.357-7.5-7.5-7.5s-7.5 3.358-7.5 7.5v56.368c0 3.653 2.633 6.775 6.233 7.392.536.092.927.159 7.215.159 3.026 0 7.419-.016 13.849-.051 4.142-.023 7.481-3.4 7.458-7.542-.023-4.127-3.375-7.457-7.499-7.457z"/><path d="m155.89 283.951c-4.143 0-7.5 3.358-7.5 7.5v19.74h-24.04v-19.74c0-4.142-3.357-7.5-7.5-7.5s-7.5 3.358-7.5 7.5v56.416c0 4.142 3.357 7.5 7.5 7.5s7.5-3.358 7.5-7.5v-21.675h24.04v21.675c0 4.142 3.357 7.5 7.5 7.5s7.5-3.358 7.5-7.5v-56.416c0-4.142-3.358-7.5-7.5-7.5z"/></g></g></svg>