<svg id="b71cf957-6104-44bf-a28a-c3091bf56141" xmlns="http://www.w3.org/2000/svg" viewBox="0 0 820.76 568.36"><path d="M661,339l-9.67,13.19A9.34,9.34,0,0,1,639.52,355h0a9.34,9.34,0,0,1-.91-16.1l12.33-8.15,35.26-35.26,3.92-12.62h26.56l-13.93,30Z" transform="translate(0)" fill="#ffb8b8"/><path d="M370.3,338.25a4.63,4.63,0,0,0-4.63,4.63V562.36A4.63,4.63,0,0,0,370.3,567H666.65a4.63,4.63,0,0,0,4.63-4.63V342.88a4.63,4.63,0,0,0-4.63-4.63Z" transform="translate(0)" fill="#e6e6e6"/><path d="M378.54,554.47H658.41V350.77H378.54Z" transform="translate(0)" fill="#fff"/><path d="M619,409.09H450.41a6,6,0,0,0,0,12H619a6,6,0,0,0,0-12Z" transform="translate(0)" fill="#e6e6e6"/><path d="M450.41,446.14a6,6,0,0,0,0,12H619a6,6,0,0,0,0-12Z" transform="translate(0)" fill="#e6e6e6"/><path d="M450.41,483.18a6,6,0,0,0,0,12H619a6,6,0,0,0,0-12Z" transform="translate(0)" fill="#e6e6e6"/><circle cx="418.46" cy="415.58" r="7.41" fill="#ff9a00"/><circle cx="418.46" cy="452.62" r="7.41" fill="#e6e6e6"/><circle cx="418.46" cy="489.66" r="7.41" fill="#e6e6e6"/><path d="M551.82,415.11h0a6,6,0,0,1-6,6H450.62a6.16,6.16,0,0,1-6.18-5.22,6,6,0,0,1,5.19-6.77,6.81,6.81,0,0,1,.78-.05H545.8a6,6,0,0,1,6,6Z" transform="translate(0)" fill="#ff9a00"/><circle cx="518.48" cy="288.24" r="24.08" fill="#e6e6e6"/><circle cx="518.48" cy="288.24" r="12.04" transform="translate(150.91 753.85) rotate(-80.78)" fill="#fff"/><path d="M787.2,530.55,775,536.21,756.49,501c-11.44-17.51-18.9-38.51-24.14-61.44l19.15,1.3c11.4,16.28,19.85,32.6,22.58,49Z" transform="translate(0)" fill="#ffb8b8"/><polygon points="755.42 445.23 731.04 445.23 731.04 403 750.63 399.52 755.42 445.23" fill="#2f2e41"/><path d="M724.09,285.94a120.37,120.37,0,0,0-36-1.36l7-35.13a16.46,16.46,0,0,1,14-13.08h0a16.44,16.44,0,0,1,18.43,14.18,16.67,16.67,0,0,1,0,3.93Z" transform="translate(0)" fill="#ff9a00"/><circle cx="706.88" cy="193.4" r="20.46" fill="#ffb8b8"/><path d="M738.44,217.12l-27,19.16-7.18-34.18,20.24-8C725.33,203,730.17,210.64,738.44,217.12Z" transform="translate(0)" fill="#ffb8b8"/><path d="M727.34,191.22c-1.51-3.12-3.41-.95-5.09,2.85l-2.41-9.66-2.9-1L715,175.72c-8.86-2.11-16,2.31-25.11,7.23l-3.48,8.27h0A21,21,0,0,1,696,163.13a21.21,21.21,0,0,1,4.53-1.6,21.66,21.66,0,0,1,4.61-.53h0a21.92,21.92,0,0,1,22.16,21.69c0,.31,0,.61,0,.92Z" transform="translate(0)" fill="#2f2e41"/><path d="M790.73,547.24l-41.65,13.59a6.34,6.34,0,0,1-7.09-3.58h0a6.34,6.34,0,0,1,2.2-7.85C752.4,543.78,759,537.78,762,531c2.77-11.27,5.91-11.29,9.32-2.88,9.41,5.56,7.89,1.1,13.75-5.82l9,17.1a5.51,5.51,0,0,1-2.3,7.44A4.85,4.85,0,0,1,790.73,547.24Z" transform="translate(0)" fill="#2f2e41"/><path d="M692.3,557.1,678.37,551l5-35.69,9.81-70.09,26.55,3.48A162.11,162.11,0,0,1,702,518.63Z" transform="translate(0)" fill="#ffb8b8"/><path d="M737.57,456.11,691.43,447l12.19-64-2.18-17.42H762C759.74,388.11,749.21,421.39,737.57,456.11Z" transform="translate(0)" fill="#2f2e41"/><path d="M764.12,371.66c-22.33-5.65-44.3-6.45-65.73,0-4-41.3-5.11-80.68-1.6-117A33.79,33.79,0,0,1,708.63,232l25.46-21.42L753,220a15,15,0,0,1,8.27,13.09C765.39,288.07,768.55,340.35,764.12,371.66Z" transform="translate(0)" fill="#ff9a00"/><path d="M786.33,364.69l3.8,13.32a10.18,10.18,0,0,1-7,12.59c-.4.11-.8.2-1.21.27h0a10.18,10.18,0,0,1-11.64-8.47,9.8,9.8,0,0,1,0-2.91L772,366.44l-9.14-66.17-12.19-26.12L775,263.27l10,32.64Z" transform="translate(0)" fill="#ffb8b8"/><path d="M687.86,568.17l-42.66-10a6.33,6.33,0,0,1-4.22-6.73h0a6.35,6.35,0,0,1,5.95-5.57c9.94-.56,18.65-2.29,24.73-6.55,8.22-8.21,10.91-6.6,9.47,2.36,5.17,9.63,6.18,5,14.78,2.14l-1.14,19.32a5.5,5.5,0,0,1-5.82,5.17A5.07,5.07,0,0,1,687.86,568.17Z" transform="translate(0)" fill="#2f2e41"/><path d="M778.93,266.31c-10.31.85-21.56,6.82-33.09,14.37L737,246a16.44,16.44,0,0,1,7-17.84h0a16.46,16.46,0,0,1,24.49,8.34Z" transform="translate(0)" fill="#ff9a00"/><path d="M4.59,74.8A4.6,4.6,0,0,0,0,79.39V296.9a4.59,4.59,0,0,0,4.59,4.59H298.28a4.59,4.59,0,0,0,4.59-4.59V79.39a4.6,4.6,0,0,0-4.59-4.59Z" transform="translate(0)" fill="#e6e6e6"/><path d="M11.5,290H291.37V86.3H11.5Z" transform="translate(0)" fill="#fff"/><path d="M39,182.43a6,6,0,1,0,0,11.93H263.86a6,6,0,1,0,0-11.93Z" transform="translate(0)" fill="#e6e6e6"/><path d="M39,219.14a6,6,0,1,0,0,11.93H263.86a6,6,0,1,0,0-11.93Z" transform="translate(0)" fill="#e6e6e6"/><path d="M139.5,257.68a6,6,0,0,0,0,11.94h23.87a6,6,0,0,0,0-11.94Z" transform="translate(0)" fill="#ff9a00"/><path d="M119.46,106.67a1.86,1.86,0,0,0-1.84,1.84v46.6a1.85,1.85,0,0,0,1.84,1.83h64a1.84,1.84,0,0,0,1.84-1.83v-46.6a1.85,1.85,0,0,0-1.84-1.84Z" transform="translate(0)" fill="#ff9a00"/><circle cx="151.44" cy="126.65" r="10.1" fill="#fff"/><path d="M168,152.35a10,10,0,0,1-1.11,4.59H136a10.09,10.09,0,0,1,9-14.68h12.85A10.09,10.09,0,0,1,168,152.34Z" transform="translate(0)" fill="#fff"/><circle cx="151.44" cy="126.65" r="10.1" fill="#fff"/><path d="M168,152.35a10,10,0,0,1-1.11,4.59H136a10.09,10.09,0,0,1,9-14.68h12.85A10.09,10.09,0,0,1,168,152.34Z" transform="translate(0)" fill="#fff"/><circle cx="151.44" cy="23.86" r="23.86" fill="#e6e6e6"/><circle cx="151.44" cy="23.86" r="11.93" fill="#ff9a00"/><polygon points="820.36 567.7 246.28 567.7 246.28 565.51 820.76 565.51 820.36 567.7" fill="#3f3d56" opacity="0.35"/></svg>