<svg id="Capa_1" enable-background="new 0 0 512 512" height="512" viewBox="0 0 512 512" width="512" xmlns="http://www.w3.org/2000/svg"><g><circle cx="255.998" cy="255.998" fill="#fee97d" r="255.998"/><path d="m512 255.998c0 141.384-114.618 256.002-256.002 256.002-42.993 0-83.524-10.602-119.089-29.322 30.661 12.992 64.382 20.173 99.772 20.173 141.384 0 256.002-114.618 256.002-256.002 0-98.412-55.532-183.852-136.964-226.701 91.837 38.882 156.281 129.835 156.281 235.85z" fill="#fee45a"/><g fill="#fe76a8"><circle cx="96.743" cy="199.409" r="29.45"/><circle cx="415.253" cy="199.409" r="29.45"/></g><g fill="#fe5694"><path d="m126.194 199.405c0 16.268-13.187 29.455-29.455 29.455-10.735 0-20.142-5.759-25.273-14.352 2.576.752 5.296 1.144 8.108 1.144 16.268 0 29.456-13.188 29.456-29.445 0-5.522-1.515-10.684-4.162-15.104 12.311 3.524 21.326 14.867 21.326 28.302z"/><path d="m444.703 199.405c0 16.268-13.188 29.455-29.445 29.455-10.746 0-20.152-5.759-25.283-14.352 2.576.752 5.296 1.144 8.108 1.144 16.268 0 29.455-13.188 29.455-29.445 0-5.522-1.514-10.684-4.162-15.104 12.312 3.514 21.327 14.857 21.327 28.302z"/></g><g><g><path d="m169.778 180.463c-4.267 0-7.727-3.46-7.727-7.727v-26.227c0-4.267 3.46-7.727 7.727-7.727s7.727 3.46 7.727 7.727v26.227c0 4.267-3.46 7.727-7.727 7.727z" fill="#444"/></g><g><path d="m342.218 180.463c-4.267 0-7.727-3.46-7.727-7.727v-26.227c0-4.267 3.46-7.727 7.727-7.727s7.727 3.46 7.727 7.727v26.227c0 4.267-3.46 7.727-7.727 7.727z" fill="#444"/></g></g><path d="m255.998 413.677c-77.542 0-140.401-62.86-140.401-140.401v-.002c0-5.743 4.655-10.398 10.398-10.398h260.006c5.743 0 10.398 4.655 10.398 10.398v.002c0 77.541-62.86 140.401-140.401 140.401z" fill="#dc8758"/><path d="m396.403 273.275c0 38.769-15.722 73.871-41.129 99.277-25.406 25.417-60.508 41.129-99.277 41.129-3.802 0-7.562-.155-11.281-.454 34.277-2.72 65.082-17.752 87.996-40.675 25.406-25.406 41.128-60.508 41.128-99.277 0-5.749-4.657-10.396-10.406-10.396h22.563c5.75.001 10.406 4.647 10.406 10.396z" fill="#c86d36"/><path d="m386 262.876c5.743 0 10.398 4.655 10.398 10.398 0 11.904-1.487 23.465-4.27 34.512h-272.261c-2.783-11.047-4.27-22.607-4.27-34.512 0-5.743 4.655-10.398 10.398-10.398z" fill="#f8f6f6"/><path d="m396.403 273.275c0 3.707-.112 7.422-.433 11.117-.098 1.13-.205 2.259-.321 3.388-.486 4.733-1.182 9.419-2.162 14.075-.272 1.291-.548 2.569-.855 3.853-.144.639-.299 1.267-.464 1.896-.01.062-.021.124-.041.185h-22.563c2.792-11.044 4.276-22.604 4.276-34.514 0-5.749-4.657-10.396-10.406-10.396h22.563c.536 0 1.072.041 1.587.124.34.052.68.113 1.02.206 1.818.455 3.42 1.398 4.749 2.72 1.886 1.876 3.05 4.472 3.05 7.346z" fill="#ebebeb"/></g></svg>