<svg height="511pt" viewBox="-54 1 511 511.99895" width="511pt" xmlns="http://www.w3.org/2000/svg"><path d="m374.433594 0h-344.207032c-16.417968 0-29.726562 13.308594-29.726562 29.726562v452.542969c0 16.421875 13.308594 29.730469 29.726562 29.730469h344.207032c16.417968 0 29.726562-13.3125 29.726562-29.730469v-452.542969c0-16.417968-13.308594-29.726562-29.726562-29.726562zm0 0" fill="#efedee"/><path d="m31.40625 482.273438v-452.546876c0-16.417968 13.308594-29.726562 29.726562-29.726562h-30.90625c-16.417968 0-29.726562 13.308594-29.726562 29.726562v452.542969c0 16.421875 13.308594 29.730469 29.726562 29.730469h30.90625c-16.417968 0-29.726562-13.308594-29.726562-29.726562zm0 0" fill="#d4d4d4"/><path d="m202.332031 270.25c253.175781-132.699219 95.160157-284.609375 0-191.605469-95.160156-93.003906-253.179687 58.90625 0 191.605469zm0 0" fill="#fd747f"/><path d="m152.613281 51.5c-86.164062-16.628906-162.007812 107.777344 49.71875 218.75 5.335938-2.796875 10.472657-5.605469 15.453125-8.417969-168.066406-94.972656-132.765625-196.855469-65.171875-210.332031zm0 0" fill="#f25759"/><g fill="#3a484a"><path d="m137.734375 163.6875c-4.269531 0-7.726563-3.460938-7.726563-7.726562v-11.691407c0-4.269531 3.457032-7.726562 7.726563-7.726562 4.265625 0 7.726563 3.457031 7.726563 7.726562v11.691407c0 4.265624-3.460938 7.726562-7.726563 7.726562zm0 0"/><path d="m266.929688 163.6875c-4.269532 0-7.726563-3.460938-7.726563-7.726562v-11.691407c0-4.269531 3.457031-7.726562 7.726563-7.726562 4.265624 0 7.726562 3.457031 7.726562 7.726562v11.691407c0 4.265624-3.460938 7.726562-7.726562 7.726562zm0 0"/><path d="m202.332031 169.925781c-8.445312 0-16.378906-3.53125-21.761719-9.695312-2.808593-3.210938-2.480468-8.09375.730469-10.902344 3.214844-2.808594 8.09375-2.480469 10.902344.734375 2.453125 2.804688 6.144531 4.410156 10.128906 4.410156s7.671875-1.605468 10.125-4.410156c2.808594-3.214844 7.6875-3.542969 10.902344-.734375 3.210937 2.808594 3.539063 7.691406.730469 10.902344-5.382813 6.164062-13.316406 9.695312-21.757813 9.695312zm0 0"/></g><path d="m108.585938 319.699219h-43.035157c-4.265625 0-7.726562-3.460938-7.726562-7.726563s3.460937-7.726562 7.726562-7.726562h43.035157c4.265624 0 7.722656 3.460937 7.722656 7.726562s-3.457032 7.726563-7.722656 7.726563zm0 0" fill="#fd747f"/><path d="m339.109375 319.699219h-175.152344c-4.265625 0-7.726562-3.460938-7.726562-7.726563s3.460937-7.726562 7.726562-7.726562h175.152344c4.269531 0 7.726563 3.460937 7.726563 7.726562s-3.457032 7.726563-7.726563 7.726563zm0 0" fill="#3a484a"/><path d="m108.585938 382.195312h-43.035157c-4.265625 0-7.726562-3.457031-7.726562-7.722656 0-4.269531 3.460937-7.726562 7.726562-7.726562h43.035157c4.265624 0 7.722656 3.457031 7.722656 7.726562 0 4.265625-3.457032 7.722656-7.722656 7.722656zm0 0" fill="#fd747f"/><path d="m339.109375 382.195312h-175.152344c-4.265625 0-7.726562-3.457031-7.726562-7.722656 0-4.269531 3.460937-7.726562 7.726562-7.726562h175.152344c4.269531 0 7.726563 3.457031 7.726563 7.726562 0 4.265625-3.457032 7.722656-7.726563 7.722656zm0 0" fill="#3a484a"/><path d="m108.585938 444.695312h-43.035157c-4.265625 0-7.726562-3.460937-7.726562-7.726562s3.460937-7.726562 7.726562-7.726562h43.035157c4.265624 0 7.722656 3.460937 7.722656 7.726562s-3.457032 7.726562-7.722656 7.726562zm0 0" fill="#fd747f"/><path d="m339.109375 444.695312h-175.152344c-4.265625 0-7.726562-3.460937-7.726562-7.726562s3.460937-7.726562 7.726562-7.726562h175.152344c4.269531 0 7.726563 3.460937 7.726563 7.726562s-3.457032 7.726562-7.726563 7.726562zm0 0" fill="#3a484a"/></svg>